<?xml version="1.0" encoding="UTF-8"?>
<svg id="Layer_1" data-name="Layer 1" xmlns="http://www.w3.org/2000/svg" viewBox="0 0 1024 1024">
  <defs>
    <style>
      .cls-1 {
        fill: none;
        stroke: #fff;
        stroke-miterlimit: 10;
        stroke-width: 60px;
      }
    </style>
  </defs>
  <rect class="cls-1" x="92.56" y="107.94" width="851" height="809" rx="60" ry="60"/>
  <g>
    <path class="cls-1" d="M778.28,677.3c0,54.35-43.55,98.41-97.27,98.41s-97.12-43.91-97.27-98.13v-98.69h97.27c53.72,0,97.27,44.06,97.27,98.41Z"/>
    <path class="cls-1" d="M452.39,578.89v98.69c-.15,54.22-43.64,98.13-97.27,98.13s-97.27-44.06-97.27-98.41,43.4-98.26,96.99-98.41h97.54Z"/>
    <path class="cls-1" d="M778.28,347.59c0,54.35-43.55,98.41-97.27,98.41h-97.27v-98.41c0-54.35,43.55-98.41,97.27-98.41s97.27,44.06,97.27,98.41Z"/>
    <path class="cls-1" d="M452.39,347.59v98.41h-97.54c-53.59-.15-96.99-44.15-96.99-98.41s43.55-98.41,97.27-98.41,97.27,44.06,97.27,98.41Z"/>
    <rect class="cls-1" x="452.39" y="446" width="131.35" height="132.89"/>
  </g>
</svg>