<svg width="81" height="82" viewBox="0 0 81 82" fill="none" xmlns="http://www.w3.org/2000/svg">
<g clip-path="url(#clip0_109391_1991)">
<path d="M0.634766 41.0722C0.634766 18.9809 18.5434 1.07227 40.6348 1.07227C62.7262 1.07227 80.6348 18.9809 80.6348 41.0722C80.6348 63.1636 62.7262 81.0722 40.6348 81.0722C18.5434 81.0722 0.634766 63.1636 0.634766 41.0722Z" fill="#F5F3F0"/>
<path d="M38.073 13.3193C37.7966 13.3193 37.5316 13.4291 37.3362 13.6245C37.1407 13.82 37.0309 14.085 37.0309 14.3614V17.2094C37.0309 17.4858 37.1407 17.7509 37.3362 17.9463C37.5316 18.1417 37.7966 18.2515 38.073 18.2515C38.3494 18.2515 38.6145 18.1417 38.8099 17.9463C39.0053 17.7509 39.1151 17.4858 39.1151 17.2094V14.3614C39.1151 14.085 39.0053 13.82 38.8099 13.6245C38.6145 13.4291 38.3494 13.3193 38.073 13.3193Z" fill="#92F2DE"/>
<path d="M33.0481 12.0588C32.9426 11.8081 32.7432 11.6086 32.4926 11.5028C32.2419 11.3971 31.9599 11.3936 31.7067 11.4931C31.4535 11.5926 31.2492 11.7871 31.1375 12.0351C31.0258 12.2832 31.0155 12.5651 31.1088 12.8206L32.8001 17.1255C32.8488 17.2547 32.9227 17.373 33.0175 17.4735C33.1123 17.574 33.2261 17.6546 33.3524 17.7106C33.4786 17.7667 33.6148 17.7971 33.7529 17.8001C33.891 17.8031 34.0283 17.7786 34.1568 17.728C34.2854 17.6775 34.4026 17.6018 34.5016 17.5056C34.6007 17.4093 34.6796 17.2943 34.7338 17.1673C34.7881 17.0402 34.8165 16.9037 34.8174 16.7655C34.8184 16.6274 34.7919 16.4905 34.7395 16.3627L33.0481 12.0588Z" fill="#92F2DE"/>
<path d="M31.1723 17.1246L28.6358 15.8188C28.3901 15.6922 28.1042 15.6684 27.841 15.7527C27.5777 15.8369 27.3587 16.0222 27.2322 16.268C27.1056 16.5137 27.0818 16.7996 27.166 17.0628C27.2502 17.3261 27.4356 17.5451 27.6813 17.6717L30.2177 18.9816C30.4636 19.1081 30.7496 19.1319 31.013 19.0476C31.2763 18.9632 31.4954 18.7777 31.622 18.5319C31.7485 18.2861 31.7723 18 31.688 17.7367C31.6036 17.4733 31.4181 17.2543 31.1723 17.1277V17.1246Z" fill="#92F2DE"/>
<path d="M61.6806 54.3574C61.9109 53.0215 59.9413 51.8647 59.9215 51.8564C59.7954 51.7847 59.6855 51.6877 59.5989 51.5713C59.5122 51.455 59.4506 51.3219 59.4181 51.1805C59.3856 51.0392 59.3828 50.8926 59.4099 50.7501C59.437 50.6076 59.4934 50.4722 59.5756 50.3527C60.6114 48.8614 61.0043 47.6432 60.7125 46.8189C60.6109 46.5811 60.4609 46.3671 60.2719 46.1905C60.083 46.014 59.8593 45.8788 59.6152 45.7935C59.4605 45.7489 59.3182 45.6691 59.1995 45.5604C59.0809 45.4516 58.989 45.3168 58.9312 45.1666C58.8733 45.0164 58.851 44.8548 58.8661 44.6945C58.8812 44.5343 58.9332 44.3797 59.018 44.2429C60.0518 42.5755 60.4228 41.2729 60.0372 40.6674C59.5891 39.9609 57.9718 39.9026 57.259 39.987C57.063 40.0105 56.8643 39.9778 56.6861 39.8928C56.5079 39.8078 56.3575 39.6739 56.2525 39.5067C56.1474 39.3395 56.092 39.146 56.0928 38.9485C56.0935 38.7511 56.1503 38.5579 56.2565 38.3915C57.3205 36.7242 57.6925 35.4612 57.2757 34.9193C56.2888 33.6323 51.0116 34.1544 44.731 36.1583C44.5621 36.2247 44.3788 36.2458 44.1992 36.2196C44.0196 36.1934 43.85 36.1207 43.7071 36.0088C43.5643 35.8969 43.4531 35.7496 43.3847 35.5815C43.3162 35.4135 43.2928 35.2304 43.3168 35.0506C43.2897 28.9658 40.1166 24.6515 37.1602 23.2093C36.191 22.7362 35.3282 22.6486 34.9082 22.98C34.458 23.3333 34.3559 24.3108 34.6373 25.5936C36.4807 34.0908 30.6919 46.1447 29.6821 48.159C30.7555 60.2025 40.424 61.8011 41.7224 61.9605C59.0754 58.8926 61.4618 55.6246 61.6806 54.3574Z" fill="#92F2DE"/>
<path d="M29.9958 66.7233C33.1259 65.9393 36.1705 64.8467 39.0849 63.4616C35.3928 62.2892 28.9162 58.867 27.7032 49.2109C26.0806 49.6194 23.0315 50.6282 21.5684 52.704C21.9122 54.4433 23.714 61.9057 29.9958 66.7233Z" fill="#92F2DE"/>
</g>
<defs>
<clipPath id="clip0_109391_1991">
<rect width="81" height="81" fill="white" transform="translate(0 0.0947266)"/>
</clipPath>
</defs>
</svg>
