<svg width="171" height="172" viewBox="0 0 171 172" fill="none" xmlns="http://www.w3.org/2000/svg">
<g clip-path="url(#clip0_109391_1619)">
<path d="M1.34006 86.8828C1.34006 40.2457 39.1472 2.43848 85.7846 2.43848C132.422 2.43848 170.229 40.2457 170.229 86.8828C170.229 133.52 132.422 171.327 85.7846 171.327C39.1472 171.327 1.34006 133.52 1.34006 86.8828Z" fill="#FFF6EF"/>
<path d="M80.3763 28.2939C79.7928 28.2939 79.2334 28.5257 78.8209 28.9383C78.4081 29.351 78.1763 29.9104 78.1763 30.4939V36.5064C78.1763 37.0899 78.4081 37.6495 78.8209 38.0621C79.2334 38.4746 79.7928 38.7064 80.3763 38.7064C80.9599 38.7064 81.5195 38.4746 81.932 38.0621C82.3445 37.6495 82.5763 37.0899 82.5763 36.5064V30.4939C82.5763 29.9104 82.3445 29.351 81.932 28.9383C81.5195 28.5257 80.9599 28.2939 80.3763 28.2939Z" fill="#FFCAAE"/>
<path d="M69.768 25.6337C69.5453 25.1045 69.1243 24.6833 68.5953 24.46C68.066 24.2368 67.4707 24.2294 66.9362 24.4395C66.4016 24.6495 65.9703 25.0602 65.7345 25.5837C65.4987 26.1075 65.477 26.7026 65.6739 27.242L69.2444 36.3301C69.3473 36.6029 69.5033 36.8526 69.7034 37.0648C69.9035 37.2769 70.1438 37.4471 70.4104 37.5653C70.6768 37.6838 70.9644 37.7479 71.2559 37.7543C71.5475 37.7606 71.8373 37.7089 72.1086 37.6021C72.3801 37.4954 72.6275 37.3356 72.8365 37.1325C73.0457 36.9292 73.2123 36.6865 73.3267 36.4184C73.4413 36.15 73.5013 35.8619 73.5032 35.5701C73.5053 35.2786 73.4494 34.9896 73.3387 34.7198L69.768 25.6337Z" fill="#FFCAAE"/>
<path d="M65.8082 36.3262L60.4534 33.5695C59.9347 33.3022 59.3311 33.252 58.7754 33.43C58.2196 33.6077 57.7573 33.9989 57.4902 34.5178C57.2229 35.0365 57.1727 35.6401 57.3504 36.1957C57.5282 36.7516 57.9196 37.2139 58.4383 37.4812L63.7929 40.2465C64.312 40.5136 64.9158 40.5638 65.4719 40.3859C66.0277 40.2077 66.4903 39.8161 66.7576 39.2972C67.0246 38.7782 67.0749 38.1743 66.8969 37.6184C66.7187 37.0623 66.3271 36.6 65.8082 36.3327V36.3262Z" fill="#FFCAAE"/>
<path d="M130.215 114.93C130.701 112.11 126.543 109.668 126.501 109.65C126.235 109.499 126.003 109.294 125.82 109.048C125.637 108.803 125.507 108.522 125.438 108.223C125.37 107.925 125.364 107.616 125.421 107.315C125.478 107.014 125.597 106.728 125.771 106.476C127.957 103.328 128.787 100.756 128.171 99.0156C127.956 98.5136 127.64 98.0618 127.241 97.689C126.842 97.3164 126.37 97.0309 125.854 96.8509C125.528 96.7567 125.227 96.5882 124.977 96.3588C124.726 96.1291 124.532 95.8445 124.41 95.5274C124.288 95.2103 124.241 94.8692 124.273 94.5308C124.305 94.1926 124.415 93.8662 124.594 93.5774C126.776 90.0573 127.559 87.3074 126.745 86.0291C125.799 84.5376 122.385 84.4145 120.88 84.5927C120.466 84.6423 120.047 84.5733 119.671 84.3938C119.294 84.2144 118.977 83.9317 118.755 83.5787C118.533 83.2258 118.416 82.8172 118.418 82.4003C118.42 81.9836 118.54 81.5757 118.764 81.2244C121.01 77.7046 121.795 75.0382 120.915 73.8942C118.832 71.1772 107.691 72.2794 94.4321 76.5099C94.0755 76.6501 93.6886 76.6946 93.3094 76.6393C92.9303 76.584 92.5722 76.4305 92.2705 76.1943C91.9691 75.958 91.7343 75.6471 91.5899 75.2922C91.4453 74.9375 91.3959 74.551 91.4466 74.1714C91.3894 61.3257 84.6906 52.2178 78.4493 49.1731C76.4032 48.1743 74.5818 47.9894 73.6951 48.689C72.7447 49.4349 72.5291 51.4985 73.1232 54.2066C77.0148 72.1452 64.794 97.5923 62.6622 101.845C64.9283 127.27 85.3396 130.645 88.0806 130.981C124.715 124.505 129.753 117.605 130.215 114.93Z" fill="#FFCAAE"/>
<path d="M63.3245 141.035C69.9325 139.38 76.3599 137.073 82.5126 134.149C74.7181 131.674 61.0453 124.45 58.4845 104.064C55.059 104.927 48.6221 107.057 45.5333 111.439C46.2591 115.111 50.0629 130.865 63.3245 141.035Z" fill="#FFCAAE"/>
</g>
<defs>
<clipPath id="clip0_109391_1619">
<rect width="171" height="171" fill="white" transform="translate(0 0.375)"/>
</clipPath>
</defs>
</svg>
